<?xml version="1.0" encoding="utf-8"?>
<!-- Generator: Adobe Illustrator 24.3.0, SVG Export Plug-In . SVG Version: 6.00 Build 0)  -->
<svg version="1.1" id="Layer_1" xmlns="http://www.w3.org/2000/svg" xmlns:xlink="http://www.w3.org/1999/xlink" x="0px" y="0px"
	 viewBox="0 0 84 84" style="enable-background:new 0 0 84 84;" xml:space="preserve">
<style type="text/css">
	.st0{fill-rule:evenodd;clip-rule:evenodd;fill:#FFFFFF;}
	.st1{fill:#1E252D;}
</style>
<desc>Created with Sketch.</desc>
<circle class="st0" cx="42" cy="42" r="42"/>
<path class="st1" d="M42,6.2C22.2,6.2,6.2,22.2,6.2,42S22.2,77.8,42,77.8c19.8,0,35.8-16.1,35.8-35.8S61.8,6.2,42,6.2z M47.1,72.4
	c5.5-2.1,9.4-7.3,9.4-13.5c0-8-6.5-14.4-14.4-14.4c-8,0-14.4,6.5-14.4,14.4c0,6.2,3.9,11.5,9.4,13.5C22.3,69.9,11.2,57.2,11.2,42
	C11.2,25,25,11.2,42,11.2C59,11.2,72.8,25,72.8,42C72.8,57.2,61.7,69.9,47.1,72.4z"/>
</svg>
