<?xml version="1.0" encoding="utf-8"?>
<!-- Generator: Adobe Illustrator 24.3.0, SVG Export Plug-In . SVG Version: 6.00 Build 0)  -->
<svg version="1.1" id="Layer_1" xmlns="http://www.w3.org/2000/svg" xmlns:xlink="http://www.w3.org/1999/xlink" x="0px" y="0px"
	 viewBox="0 0 72 26" style="enable-background:new 0 0 72 26;" xml:space="preserve">
<style type="text/css">
	.st0{fill:#1E252D;}
</style>
<desc>Created with Sketch.</desc>
<g>
	<g>
		<path class="st0" d="M54.6,13.3h1c0-0.1-0.1-0.2-0.1-0.3c-0.1-0.3-0.2-0.5-0.4-0.7c-0.1-0.2-0.3-0.4-0.5-0.6
			c-0.2-0.2-0.4-0.3-0.6-0.4c-0.2-0.1-0.4-0.2-0.7-0.3c-0.1,0-0.2,0-0.3-0.1v1c0.4,0.1,0.7,0.3,0.9,0.5
			C54.3,12.5,54.5,12.9,54.6,13.3z"/>
		<path class="st0" d="M49.2,12.3c0.2-0.2,0.5-0.3,0.8-0.5v-1c0,0-0.1,0-0.1,0c-0.3,0.1-0.5,0.2-0.7,0.3c-0.2,0.1-0.4,0.3-0.6,0.4
			c-0.2,0.2-0.4,0.4-0.5,0.6c-0.1,0.2-0.3,0.5-0.4,0.7c0,0.1-0.1,0.2-0.1,0.3h1C48.7,12.9,48.9,12.5,49.2,12.3z"/>
		<path class="st0" d="M57.4,7c-0.1,0-0.2,0-0.3,0.1C57,7.2,57,7.3,57,7.5v0.9c0,0.1,0,0.2,0.1,0.3c0.1,0.1,0.2,0.1,0.3,0.1
			c0.1,0,0.2,0,0.3-0.1c0.1-0.1,0.1-0.2,0.1-0.3V7.5c0-0.1,0-0.2-0.1-0.3C57.7,7,57.6,7,57.4,7z"/>
		<path class="st0" d="M30.5,18c-0.1-0.1-0.2-0.1-0.4,0c-0.1,0-0.2,0.1-0.3,0.1c-0.1,0-0.3,0-0.4,0c-0.2,0-0.3,0-0.5-0.1
			c-0.2,0-0.4-0.2-0.5-0.4c-0.1-0.1-0.2-0.3-0.2-0.6C28,16.8,28,16.6,28,16.2v-4.6h2.3c0.1,0,0.2,0,0.3-0.1c0.1-0.1,0.1-0.2,0.1-0.3
			c0-0.1,0-0.2-0.1-0.3c-0.1-0.1-0.2-0.1-0.3-0.1H28V7.5c0-0.1,0-0.2-0.1-0.3C27.8,7,27.7,7,27.6,7c-0.1,0-0.2,0-0.3,0.1
			c-0.1,0.1-0.1,0.2-0.1,0.3v8.8c0,0.4,0,0.8,0.1,1.1c0.1,0.3,0.2,0.6,0.4,0.8c0.2,0.3,0.4,0.5,0.7,0.6c0.3,0.1,0.7,0.2,1.1,0.2
			c0.2,0,0.4,0,0.6,0c0.2,0,0.3-0.1,0.5-0.1c0.1,0,0.2-0.1,0.3-0.2c0.1-0.1,0.1-0.2,0-0.3C30.7,18.2,30.7,18.1,30.5,18z"/>
		<path class="st0" d="M38.2,11.2c0-0.1,0-0.2-0.1-0.3c-0.1-0.1-0.2-0.1-0.3-0.1c-0.1,0-0.2,0-0.3,0.1l-3.8,3.8V7.5
			c0-0.1,0-0.2-0.1-0.3C33.3,7,33.2,7,33.1,7c-0.1,0-0.2,0-0.3,0.1c-0.1,0.1-0.1,0.2-0.1,0.3v11.1c0,0.1,0,0.2,0.1,0.3
			C32.9,19,33,19,33.1,19c0.1,0,0.2,0,0.3-0.1c0.1-0.1,0.1-0.2,0.1-0.3V15l3.8,3.8c0,0,0.1,0.1,0.2,0.1c0.1,0,0.1,0,0.2,0
			c0.1,0,0.1,0,0.2,0c0.1,0,0.1-0.1,0.2-0.1c0.1-0.1,0.1-0.2,0.1-0.3c0-0.1,0-0.2-0.1-0.3l-3.4-3.4l3.4-3.4
			C38.1,11.4,38.2,11.3,38.2,11.2z"/>
		<path class="st0" d="M41.1,12.3c0.3-0.2,0.6-0.4,1-0.5c0.4-0.1,0.9-0.2,1.4-0.2c0.6,0,1.1,0.1,1.5,0.2c0.4,0.1,0.7,0.3,1,0.6
			c0.1,0.1,0.2,0.1,0.3,0.1c0.1,0,0.2,0,0.3-0.1c0.1-0.1,0.1-0.2,0.1-0.3c0-0.1,0-0.2-0.1-0.3c-0.2-0.2-0.4-0.3-0.6-0.4
			c-0.2-0.1-0.4-0.2-0.7-0.3c-0.3-0.1-0.5-0.1-0.8-0.2c-0.3,0-0.6-0.1-1-0.1c-0.3,0-0.7,0-0.9,0.1c-0.3,0-0.6,0.1-0.8,0.2
			c-0.3,0.1-0.5,0.2-0.7,0.3c-0.2,0.1-0.4,0.3-0.6,0.4c-0.2,0.2-0.4,0.4-0.5,0.6c-0.1,0.2-0.3,0.5-0.4,0.7c-0.1,0.3-0.2,0.6-0.2,0.9
			c0,0.3-0.1,0.7-0.1,1c0,0.4,0,0.7,0.1,1c0,0.3,0.1,0.6,0.2,0.9c0.1,0.3,0.2,0.5,0.4,0.7c0.1,0.2,0.3,0.4,0.5,0.6
			c0.2,0.2,0.4,0.3,0.6,0.4c0.2,0.1,0.4,0.2,0.7,0.3c0.3,0.1,0.5,0.1,0.8,0.2c0.3,0,0.6,0.1,0.9,0.1c0.4,0,0.7,0,1-0.1
			c0.3,0,0.6-0.1,0.8-0.2c0.3-0.1,0.5-0.2,0.7-0.3c0.2-0.1,0.4-0.3,0.6-0.4c0.1-0.1,0.1-0.2,0.1-0.3c0-0.1,0-0.2-0.1-0.3
			c-0.1-0.1-0.2-0.1-0.3-0.1c-0.1,0-0.2,0-0.3,0.1c-0.3,0.2-0.6,0.4-1,0.6c-0.4,0.1-0.9,0.2-1.5,0.2c-0.6,0-1-0.1-1.4-0.2
			c-0.4-0.1-0.7-0.3-1-0.5c-0.3-0.3-0.5-0.6-0.6-1c-0.1-0.4-0.2-0.9-0.2-1.5c0-0.6,0.1-1.1,0.2-1.5C40.6,12.9,40.8,12.6,41.1,12.3z"
			/>
		<path class="st0" d="M48.6,16.4C48.6,16.4,48.6,16.4,48.6,16.4l-1,0c0,0.1,0.1,0.3,0.1,0.4c0.1,0.3,0.2,0.5,0.4,0.7
			c0.1,0.2,0.3,0.4,0.5,0.6c0.2,0.2,0.4,0.3,0.6,0.4c0.2,0.1,0.4,0.2,0.7,0.3c0,0,0.1,0,0.1,0v-1c-0.3-0.1-0.6-0.3-0.8-0.5
			C48.9,17.1,48.7,16.8,48.6,16.4z"/>
		<path class="st0" d="M54.6,16.4c-0.1,0.4-0.3,0.8-0.6,1c-0.2,0.2-0.5,0.4-0.9,0.5v1c0.1,0,0.2,0,0.3-0.1c0.3-0.1,0.5-0.2,0.7-0.3
			c0.2-0.1,0.4-0.3,0.6-0.4c0.2-0.2,0.4-0.4,0.5-0.6c0.1-0.2,0.3-0.5,0.4-0.7c0-0.1,0.1-0.3,0.1-0.4L54.6,16.4
			C54.6,16.4,54.6,16.4,54.6,16.4z"/>
		<path class="st0" d="M57.4,10.7c-0.1,0-0.2,0-0.3,0.1C57,10.9,57,11,57,11.1v7.4c0,0.1,0,0.2,0.1,0.3c0.1,0.1,0.2,0.1,0.3,0.1
			c0.1,0,0.2,0,0.3-0.1c0.1-0.1,0.1-0.2,0.1-0.3v-7.4c0-0.1,0-0.2-0.1-0.3C57.7,10.7,57.6,10.7,57.4,10.7z"/>
		<path class="st0" d="M67.1,13.8c0-0.3-0.1-0.6-0.2-0.9c-0.1-0.3-0.2-0.5-0.3-0.7c-0.1-0.2-0.3-0.4-0.5-0.6
			c-0.3-0.3-0.7-0.6-1.1-0.7c-0.4-0.2-0.9-0.2-1.5-0.2c-0.6,0-1.1,0.1-1.5,0.2c-0.4,0.2-0.8,0.4-1.1,0.7c0,0,0,0-0.1,0.1
			c0,0,0,0-0.1,0.1v-0.6c0-0.1,0-0.2-0.1-0.3c-0.1-0.1-0.2-0.1-0.3-0.1c-0.1,0-0.2,0-0.3,0.1c-0.1,0.1-0.1,0.2-0.1,0.3v7.4
			c0,0.1,0,0.2,0.1,0.3C60,19,60.1,19,60.2,19c0.1,0,0.2,0,0.3-0.1c0.1-0.1,0.1-0.2,0.1-0.3v-3.7c0-0.6,0.1-1.1,0.2-1.5
			c0.1-0.4,0.3-0.8,0.6-1c0.2-0.2,0.5-0.4,0.8-0.5c0.3-0.1,0.7-0.2,1.2-0.2c0.4,0,0.8,0.1,1.2,0.2c0.3,0.1,0.6,0.3,0.8,0.5
			c0.3,0.3,0.5,0.6,0.6,1c0.1,0.4,0.2,0.9,0.2,1.5v3.7c0,0.1,0,0.2,0.1,0.3c0.1,0.1,0.2,0.1,0.3,0.1c0.1,0,0.2,0,0.3-0.1
			c0.1-0.1,0.1-0.2,0.1-0.3v-3.7C67.1,14.5,67.1,14.2,67.1,13.8z"/>
	</g>
	<path class="st0" d="M14.6,2.7C8.9,2.7,4.3,7.3,4.3,13s4.6,10.3,10.3,10.3c5.7,0,10.3-4.6,10.3-10.3S20.2,2.7,14.6,2.7z M16,21.7
		c1.6-0.6,2.7-2.1,2.7-3.9c0-2.3-1.9-4.2-4.2-4.2c-2.3,0-4.2,1.9-4.2,4.2c0,1.8,1.1,3.3,2.7,3.9C8.9,21,5.7,17.4,5.7,13
		c0-4.9,4-8.9,8.9-8.9c4.9,0,8.9,4,8.9,8.9C23.4,17.4,20.2,21,16,21.7z"/>
</g>
</svg>
