<?xml version="1.0" encoding="utf-8"?>
<!-- Generator: Adobe Illustrator 24.3.0, SVG Export Plug-In . SVG Version: 6.00 Build 0)  -->
<svg version="1.1" id="Layer_1" xmlns="http://www.w3.org/2000/svg" xmlns:xlink="http://www.w3.org/1999/xlink" x="0px" y="0px"
	 viewBox="0 0 185 64" style="enable-background:new 0 0 185 64;" xml:space="preserve">
<style type="text/css">
	.st0{fill:#1E252D;}
</style>
<g>
	<g>
		<path class="st0" d="M142.8,33.2h2.6c-0.1-0.3-0.2-0.6-0.3-0.8c-0.3-0.7-0.6-1.4-0.9-1.9c-0.4-0.6-0.8-1.1-1.3-1.6
			c-0.5-0.4-1-0.8-1.5-1.1c-0.6-0.3-1.2-0.6-1.8-0.8c-0.2-0.1-0.5-0.1-0.7-0.2v2.5c1,0.3,1.8,0.7,2.4,1.3
			C141.9,31.3,142.4,32.1,142.8,33.2z"/>
		<path class="st0" d="M128.2,30.6c0.6-0.5,1.3-0.9,2.1-1.2v-2.6c-0.1,0-0.2,0.1-0.4,0.1c-0.7,0.2-1.3,0.5-1.8,0.8
			c-0.5,0.3-1.1,0.7-1.5,1.1c-0.5,0.5-1,1-1.3,1.6c-0.4,0.6-0.7,1.2-0.9,1.9c-0.1,0.3-0.2,0.5-0.3,0.8h2.6
			C127,32.1,127.5,31.3,128.2,30.6z"/>
		<path class="st0" d="M150.2,16.5c-0.4,0-0.6,0.1-0.9,0.4c-0.2,0.2-0.4,0.5-0.4,0.9v2.4c0,0.3,0.1,0.6,0.4,0.9
			c0.2,0.2,0.5,0.4,0.9,0.4c0.3,0,0.6-0.1,0.9-0.4c0.2-0.2,0.4-0.5,0.4-0.9v-2.4c0-0.3-0.1-0.6-0.4-0.9
			C150.8,16.7,150.5,16.5,150.2,16.5z"/>
		<path class="st0" d="M78.8,45.9c-0.3-0.2-0.6-0.2-0.9-0.1c-0.3,0.1-0.6,0.1-0.9,0.2c-0.4,0-0.7,0-1.2,0c-0.4,0-0.9-0.1-1.4-0.2
			c-0.5-0.1-1-0.5-1.4-1c-0.3-0.4-0.5-0.9-0.6-1.5c-0.1-0.6-0.2-1.4-0.2-2.2V28.8h6.1c0.3,0,0.6-0.1,0.9-0.4
			c0.2-0.2,0.4-0.5,0.4-0.9c0-0.3-0.1-0.6-0.4-0.9c-0.2-0.2-0.5-0.4-0.9-0.4h-6.1v-8.6c0-0.3-0.1-0.6-0.4-0.9
			c-0.2-0.2-0.5-0.4-0.9-0.4c-0.4,0-0.6,0.1-0.9,0.4c-0.2,0.2-0.4,0.5-0.4,0.9v23.3c0,1.1,0.1,2.1,0.3,3c0.2,0.9,0.5,1.6,1,2.2
			c0.5,0.7,1.2,1.3,2,1.7c0.8,0.4,1.8,0.5,2.8,0.5c0.6,0,1.1,0,1.6-0.1c0.5-0.1,0.9-0.1,1.3-0.3c0.3-0.1,0.6-0.3,0.7-0.6
			c0.2-0.3,0.2-0.6,0.1-0.9C79.3,46.3,79.1,46,78.8,45.9z"/>
		<path class="st0" d="M99.1,27.6c0-0.4-0.1-0.6-0.4-0.9c-0.2-0.2-0.5-0.4-0.9-0.4c-0.3,0-0.6,0.1-0.9,0.4L86.8,36.9V17.8
			c0-0.3-0.1-0.6-0.4-0.9c-0.2-0.2-0.5-0.4-0.9-0.4c-0.4,0-0.6,0.1-0.9,0.4c-0.2,0.2-0.4,0.5-0.4,0.9v29.5c0,0.3,0.1,0.6,0.4,0.9
			c0.2,0.2,0.5,0.4,0.9,0.4c0.3,0,0.6-0.1,0.9-0.4c0.2-0.2,0.4-0.5,0.4-0.9v-9.3L97,48.1c0.1,0.1,0.3,0.2,0.4,0.3
			c0.2,0.1,0.3,0.1,0.5,0.1c0.1,0,0.3,0,0.4-0.1c0.2-0.1,0.3-0.2,0.4-0.3c0.2-0.2,0.4-0.5,0.4-0.9c0-0.3-0.1-0.6-0.4-0.9l-9-8.9
			l9-8.9C99,28.2,99.1,27.9,99.1,27.6z"/>
		<path class="st0" d="M106.7,30.6c0.7-0.6,1.5-1.1,2.6-1.4c1.1-0.3,2.3-0.4,3.8-0.4c1.5,0,2.8,0.2,3.9,0.5c1.1,0.3,2,0.8,2.6,1.5
			c0.2,0.2,0.5,0.4,0.9,0.3c0.3,0,0.6-0.1,0.9-0.4c0.2-0.3,0.4-0.6,0.3-0.9c0-0.3-0.1-0.6-0.4-0.9c-0.5-0.4-1-0.8-1.5-1.2
			c-0.6-0.3-1.2-0.6-1.9-0.8c-0.7-0.2-1.4-0.4-2.2-0.5c-0.8-0.1-1.7-0.2-2.6-0.2c-0.9,0-1.7,0.1-2.5,0.2c-0.8,0.1-1.5,0.3-2.2,0.5
			c-0.7,0.2-1.3,0.5-1.8,0.8c-0.5,0.3-1.1,0.7-1.5,1.1c-0.5,0.5-1,1-1.3,1.6c-0.4,0.6-0.7,1.2-0.9,1.9c-0.2,0.7-0.4,1.5-0.6,2.3
			c-0.1,0.8-0.2,1.8-0.2,2.7c0,1,0.1,1.9,0.2,2.7c0.1,0.8,0.3,1.6,0.6,2.3c0.2,0.7,0.6,1.4,0.9,1.9c0.4,0.6,0.8,1.1,1.3,1.6
			c0.5,0.4,1,0.8,1.5,1.1c0.5,0.3,1.2,0.6,1.8,0.8c0.7,0.2,1.4,0.4,2.2,0.5c0.8,0.1,1.6,0.2,2.5,0.2c0.9,0,1.8-0.1,2.6-0.2
			c0.8-0.1,1.5-0.3,2.2-0.5c0.7-0.2,1.3-0.5,1.9-0.8c0.6-0.3,1.1-0.7,1.5-1.2c0.2-0.2,0.4-0.5,0.4-0.9c0-0.3-0.1-0.6-0.3-0.9
			c-0.2-0.2-0.5-0.4-0.9-0.4c-0.3,0-0.6,0.1-0.9,0.4c-0.7,0.7-1.6,1.1-2.6,1.5c-1.1,0.3-2.4,0.5-3.9,0.5c-1.5,0-2.7-0.2-3.8-0.4
			c-1.1-0.3-1.9-0.8-2.6-1.4c-0.8-0.7-1.3-1.6-1.7-2.7c-0.4-1.1-0.5-2.5-0.5-4.1c0-1.6,0.2-3,0.5-4.1
			C105.4,32.2,106,31.3,106.7,30.6z"/>
		<path class="st0" d="M126.7,41.5C126.7,41.5,126.7,41.5,126.7,41.5l-2.6,0c0.1,0.4,0.2,0.7,0.3,1c0.2,0.7,0.6,1.4,0.9,1.9
			c0.4,0.6,0.8,1.1,1.3,1.6c0.5,0.4,1,0.8,1.5,1.1c0.6,0.3,1.2,0.6,1.8,0.8c0.1,0,0.2,0.1,0.4,0.1v-2.6c-0.8-0.3-1.5-0.7-2.1-1.2
			C127.6,43.5,127.1,42.6,126.7,41.5z"/>
		<path class="st0" d="M142.8,41.5c-0.4,1.1-0.9,2-1.7,2.7c-0.6,0.6-1.4,1-2.4,1.3V48c0.2-0.1,0.5-0.1,0.7-0.2
			c0.7-0.2,1.3-0.5,1.8-0.8c0.6-0.3,1.1-0.7,1.5-1.1c0.5-0.5,1-1,1.3-1.6c0.4-0.6,0.7-1.2,0.9-1.9c0.1-0.3,0.2-0.7,0.3-1L142.8,41.5
			C142.8,41.5,142.8,41.5,142.8,41.5z"/>
		<path class="st0" d="M150.2,26.3c-0.4,0-0.6,0.1-0.9,0.4c-0.2,0.2-0.4,0.5-0.4,0.9v19.7c0,0.3,0.1,0.6,0.4,0.9
			c0.2,0.2,0.5,0.4,0.9,0.4c0.3,0,0.6-0.1,0.9-0.4c0.2-0.2,0.4-0.5,0.4-0.9V27.6c0-0.3-0.1-0.6-0.4-0.9
			C150.8,26.5,150.5,26.3,150.2,26.3z"/>
		<path class="st0" d="M175.8,34.7c-0.1-0.8-0.3-1.6-0.5-2.3c-0.2-0.7-0.5-1.4-0.9-2c-0.4-0.6-0.8-1.1-1.2-1.6
			c-0.8-0.8-1.8-1.5-3-1.9c-1.2-0.4-2.5-0.6-4-0.6c-1.5,0-2.8,0.2-4,0.6c-1.2,0.4-2.2,1.1-3,1.9c-0.1,0.1-0.1,0.1-0.2,0.2
			c-0.1,0.1-0.1,0.1-0.2,0.2v-1.7c0-0.3-0.1-0.6-0.4-0.9c-0.2-0.2-0.5-0.4-0.9-0.4c-0.4,0-0.7,0.1-0.9,0.4c-0.2,0.2-0.4,0.5-0.4,0.9
			v19.7c0,0.3,0.1,0.6,0.4,0.9c0.2,0.2,0.5,0.4,0.9,0.4c0.3,0,0.6-0.1,0.9-0.4c0.2-0.2,0.4-0.5,0.4-0.9v-9.8c0-1.6,0.2-2.9,0.5-4.1
			c0.4-1.1,0.9-2.1,1.6-2.8c0.6-0.6,1.3-1,2.2-1.3c0.9-0.3,1.9-0.4,3.1-0.4c1.2,0,2.2,0.1,3.1,0.4c0.9,0.3,1.6,0.7,2.2,1.3
			c0.7,0.7,1.2,1.6,1.6,2.8c0.4,1.1,0.5,2.5,0.5,4.1v9.8c0,0.3,0.1,0.6,0.4,0.9c0.2,0.2,0.5,0.4,0.9,0.4c0.4,0,0.6-0.1,0.9-0.4
			c0.2-0.2,0.4-0.5,0.4-0.9v-9.8C176,36.5,175.9,35.6,175.8,34.7z"/>
	</g>
	<path class="st0" d="M36.4,5.1C21.3,5.1,9,17.4,9,32.5s12.3,27.4,27.4,27.4c15.1,0,27.4-12.3,27.4-27.4S51.5,5.1,36.4,5.1z
		 M40.3,55.7c4.2-1.6,7.1-5.6,7.1-10.3c0-6.1-4.9-11-11-11c-6.1,0-11,4.9-11,11c0,4.7,3,8.8,7.1,10.3c-11.1-1.9-19.6-11.6-19.6-23.2
		C12.8,19.5,23.4,9,36.4,9c13,0,23.5,10.6,23.5,23.5C59.9,44.1,51.4,53.8,40.3,55.7z"/>
</g>
</svg>
