<?xml version="1.0" encoding="utf-8"?>
<!-- Generator: Adobe Illustrator 24.3.0, SVG Export Plug-In . SVG Version: 6.00 Build 0)  -->
<svg version="1.1" id="Layer_1" xmlns:serif="http://www.serif.com/"
	 xmlns="http://www.w3.org/2000/svg" xmlns:xlink="http://www.w3.org/1999/xlink" x="0px" y="0px" viewBox="0 0 2048 2048"
	 style="enable-background:new 0 0 2048 2048;" xml:space="preserve">
<style type="text/css">
	.st0{fill:#FFFFFF;}
</style>
<path class="st0" d="M1032.4,143.1c-485.8,0-880.9,395.2-880.9,880.9s395.2,880.9,880.9,880.9c485.8,0,880.9-395.2,880.9-880.9
	S1518.2,143.1,1032.4,143.1z M1157.6,1770.6c134.3-50.6,229.8-180.3,229.8-332.3c0-196.1-159-355.1-355.1-355.1
	c-196.1,0-355.1,159-355.1,355.1c0,152,95.5,281.6,229.8,332.3c-358-59.9-631.8-371.8-631.8-746.6c0-417.4,339.6-757,757-757
	c417.4,0,757,339.6,757,757C1789.4,1398.7,1515.7,1710.7,1157.6,1770.6z"/>
</svg>
