<?xml version="1.0" encoding="utf-8"?>
<!-- Generator: Adobe Illustrator 24.3.0, SVG Export Plug-In . SVG Version: 6.00 Build 0)  -->
<svg version="1.1" id="Layer_1" xmlns="http://www.w3.org/2000/svg" xmlns:xlink="http://www.w3.org/1999/xlink" x="0px" y="0px"
	 viewBox="0 0 50 50" style="enable-background:new 0 0 50 50;" xml:space="preserve">
<style type="text/css">
	.st0{fill:#3C6EA4;}
	.st1{fill:#FFFFFF;}
</style>
<path class="st0" d="M42.2,6.9c-10-9.5-25.8-9.1-35.3,0.9s-9.1,25.8,0.9,35.3s25.8,9.1,35.3-0.9C47.5,37.6,50,31.4,50,25
	C50,18.1,47.2,11.6,42.2,6.9z"/>
<g>
	<path class="st1" d="M14.9,17.8l12.7,12.8c0.1,0.1,0.3,0.1,0.4,0c0,0,0,0,0,0l2.9-2.9c0.1-0.1,0.1-0.2,0-0.3L20.6,17
		c0-0.1-0.1-0.1-0.2-0.1L15,17.3c-0.1,0-0.3,0.1-0.3,0.3C14.8,17.6,14.8,17.7,14.9,17.8z"/>
	<path class="st1" d="M29.5,24.2c0.1,0.1,0.3,0.1,0.4,0c0,0,0.1-0.1,0.1-0.2v-6.8c0-0.1-0.1-0.3-0.3-0.3c-0.1,0-0.1,0-0.2,0.1
		l-3.4,3.4c-0.1,0.1-0.1,0.3,0,0.4c0,0,0,0,0,0L29.5,24.2z"/>
	<path class="st1" d="M31.6,21.5l3.5-0.6c0.1,0,0.2-0.1,0.2-0.3c0-0.1,0-0.1-0.1-0.2L31.7,17c-0.1-0.1-0.3-0.1-0.4,0
		c0,0-0.1,0.1-0.1,0.2v4C31.3,21.4,31.4,21.5,31.6,21.5C31.5,21.5,31.6,21.5,31.6,21.5z"/>
	<path class="st1" d="M21.1,26.5l-0.8,11c0,0.1,0.1,0.3,0.2,0.3c0.1,0,0.1,0,0.2-0.1l5.9-5.9c0.1-0.1,0.1-0.3,0-0.4c0,0,0,0,0,0
		l-5.1-5.1c-0.1-0.1-0.3-0.1-0.4,0C21.1,26.4,21.1,26.4,21.1,26.5z"/>
	<path class="st1" d="M41.9,17.1v1.2h2.9v-1.5c0-6.4-5.2-11.6-11.6-11.6h-1.5v2.9h1.2C37.8,8.1,41.8,12.1,41.9,17.1
		C41.9,17.1,41.9,17.1,41.9,17.1z"/>
	<path class="st1" d="M8.2,17.1c0-5,4-9,9-9h1.2V5.2h-1.5c-6.4,0-11.6,5.2-11.6,11.6l0,0v1.5h3L8.2,17.1z"/>
	<path class="st1" d="M44.8,31.7h-2.9v1.2c0,5-4,9-9,9l0,0h-1.2v2.9h1.5c6.4,0,11.6-5.2,11.6-11.6L44.8,31.7z"/>
	<path class="st1" d="M16.8,44.8h1.5v-2.9h-1.2c-5,0-9-4-9-9v-1.2h-3v1.5C5.2,39.6,10.4,44.8,16.8,44.8z"/>
</g>
</svg>
