<?xml version="1.0" encoding="utf-8"?>
<!-- Generator: Adobe Illustrator 24.3.0, SVG Export Plug-In . SVG Version: 6.00 Build 0)  -->
<svg version="1.1" id="Layer_1" xmlns="http://www.w3.org/2000/svg" xmlns:xlink="http://www.w3.org/1999/xlink" x="0px" y="0px"
	 viewBox="0 0 50 50" style="enable-background:new 0 0 50 50;" xml:space="preserve">
<style type="text/css">
	.st0{fill:#1E252D;}
</style>
<path class="st0" d="M25,0C11.3,0,0,11.3,0,25s11.3,25,25,25s25-11.3,25-25S38.7,0,25,0z M28.4,44.8c3.6-1.3,6.1-4.8,6.1-8.8
	c0-5.2-4.2-9.5-9.5-9.5s-9.5,4.2-9.5,9.5c0,4,2.5,7.5,6.1,8.8C12.1,43.2,5,34.9,5,25c0-11.1,8.9-20,20-20s20,9,20,20
	C45,34.9,37.9,43.2,28.4,44.8z"/>
</svg>
