<?xml version="1.0" encoding="utf-8"?>
<!-- Generator: Adobe Illustrator 24.3.0, SVG Export Plug-In . SVG Version: 6.00 Build 0)  -->
<svg version="1.1" id="Layer_1" xmlns="http://www.w3.org/2000/svg" xmlns:xlink="http://www.w3.org/1999/xlink" x="0px" y="0px"
	 viewBox="0 0 1132.6 581" style="enable-background:new 0 0 1132.6 581;" xml:space="preserve">
<style type="text/css">
	.st0{fill:#F98303;}
	.st1{fill:#F4BC2F;}
	.st2{opacity:0.1;clip-path:url(#SVGID_2_);}
	.st3{fill:#FFFFFF;}
	.st4{fill:#123A6B;}
</style>
<g>
	<g>
		<g>
			<path class="st0" d="M566.3,47.1c-114.6,95.5-229.6,113.8-229.6,113.8c24,242.7,229.6,373,229.6,373s206-130.3,229.6-373
				C795.9,160.9,680.9,142.6,566.3,47.1z"/>
			<g>
				<path class="st1" d="M566.3,81.2c-98.5,82-197.4,97.7-197.4,97.7c20.6,208.6,197.4,320.6,197.4,320.6s177.1-112,197.4-320.6
					C763.7,179.3,664.8,163.2,566.3,81.2z"/>
				<g>
					<g>
						<defs>
							<path id="SVGID_1_" d="M566.3,81.2c-98.5,82-197.4,97.7-197.4,97.7c20.6,208.6,197.4,320.6,197.4,320.6
								s177.1-112,197.4-320.6C763.7,179.3,664.8,163.2,566.3,81.2z"/>
						</defs>
						<clipPath id="SVGID_2_">
							<use xlink:href="#SVGID_1_"  style="overflow:visible;"/>
						</clipPath>
						<g class="st2">
							
								<rect x="-604.8" y="-234.8" transform="matrix(0.7071 -0.7071 0.7071 0.7071 342.0319 474.4719)" class="st3" width="2697.2" height="118.3"/>
							
								<rect x="-728.5" y="225.5" transform="matrix(0.7071 -0.7071 0.7071 0.7071 11.0474 509.1309)" class="st3" width="2697.2" height="31.5"/>
							
								<rect x="-563.1" y="196.6" transform="matrix(0.7071 -0.7071 0.7071 0.7071 55.5352 627.6765)" class="st3" width="2697.2" height="100.4"/>
							
								<rect x="-524" y="557.4" transform="matrix(0.7071 -0.7071 0.7071 0.7071 -194.4636 763.6909)" class="st3" width="2697.2" height="118.3"/>
							
								<rect x="-404.6" y="749.7" transform="matrix(0.7071 -0.7071 0.7071 0.7071 -264.7437 891.6765)" class="st3" width="2697.2" height="31.5"/>
						</g>
					</g>
				</g>
			</g>
		</g>
		<g>
			<path class="st4" d="M686.5,279.6c0,66.7-53.9,120.2-120.2,120.2c-66.7,0-120.2-53.9-120.2-120.2c0-66.7,53.9-120.2,120.2-120.2
				C633,159.4,686.5,213.4,686.5,279.6z"/>
		</g>
	</g>
	<g>
		<path class="st3" d="M532.7,254.6l43.9,44.2c0.4,0.4,0.9,0.4,1.3,0l9.9-9.9c0.4-0.4,0.4-0.9,0-1.3l-35.4-35.7
			c-0.2-0.2-0.5-0.3-0.7-0.3l-18.4,1.4C532.5,253.1,532.2,254,532.7,254.6z"/>
		<path class="st3" d="M583.6,277c0.6,0.6,1.6,0.2,1.6-0.6l0-23.7c0-0.8-1-1.2-1.6-0.6l-11.8,11.8c-0.4,0.4-0.4,0.9,0,1.3L583.6,277
			z"/>
		<path class="st3" d="M590.6,267.5l11.8-2.1c0.7-0.1,1-1,0.5-1.5L591.1,252c-0.6-0.6-1.6-0.2-1.6,0.6v14
			C589.5,267.2,590.1,267.6,590.6,267.5z"/>
		<path class="st3" d="M554.3,284.7l-2.8,38.3c-0.1,0.8,1,1.3,1.6,0.7l20.5-20.5c0.4-0.4,0.4-0.9,0-1.3l-17.7-17.8
			C555.3,283.5,554.4,283.9,554.3,284.7z"/>
		<path class="st3" d="M626.2,252.4v4h10.1v-5.2c0-22.1-17.9-40-40.1-40H591v10.1h4.1C612.2,221.3,626.2,235.2,626.2,252.4z"/>
		<path class="st3" d="M509.5,252.4c0-17.2,13.9-31.1,31.1-31.1h4v-10.1h-5.2c-22.2,0-40.1,17.9-40.1,40v5.2h10.2V252.4z"/>
		<path class="st3" d="M636.3,302.8h-10.1v4.1c0,17.2-13.9,31.1-31.1,31.1H591v10.1h5.2c22.2,0,40.1-17.9,40.1-40V302.8z"/>
		<path class="st3" d="M539.4,348.1h5.2v-10.1h-4c-17.2,0-31.1-13.9-31.1-31.1v-4.1h-10.2v5.3C499.3,330.2,517.3,348.1,539.4,348.1z
			"/>
	</g>
</g>
</svg>
