<?xml version="1.0" encoding="utf-8"?>
<!-- Generator: Adobe Illustrator 24.3.0, SVG Export Plug-In . SVG Version: 6.00 Build 0)  -->
<svg version="1.1" id="Layer_1" xmlns="http://www.w3.org/2000/svg" xmlns:xlink="http://www.w3.org/1999/xlink" x="0px" y="0px"
	 viewBox="0 0 86.8 30.5" style="enable-background:new 0 0 86.8 30.5;" xml:space="preserve">
<style type="text/css">
	.st0{fill:#FFFFFF;}
</style>
<g>
	<g>
		<path class="st0" d="M68.3,15.8h1.3c0-0.1-0.1-0.3-0.1-0.4c-0.1-0.3-0.3-0.7-0.5-1c-0.2-0.3-0.4-0.5-0.7-0.8
			c-0.2-0.2-0.5-0.4-0.7-0.5c-0.3-0.2-0.6-0.3-0.9-0.4c-0.1,0-0.2-0.1-0.3-0.1v1.3c0.5,0.1,0.9,0.4,1.2,0.7
			C67.9,14.9,68.1,15.3,68.3,15.8z"/>
		<path class="st0" d="M61.1,14.6c0.3-0.3,0.6-0.5,1-0.6v-1.3c-0.1,0-0.1,0-0.2,0.1c-0.3,0.1-0.6,0.2-0.9,0.4
			c-0.3,0.2-0.5,0.3-0.8,0.5c-0.3,0.2-0.5,0.5-0.7,0.8c-0.2,0.3-0.3,0.6-0.5,1c0,0.1-0.1,0.3-0.1,0.4h1.3
			C60.5,15.3,60.8,14.9,61.1,14.6z"/>
		<path class="st0" d="M72,7.6c-0.2,0-0.3,0.1-0.4,0.2c-0.1,0.1-0.2,0.3-0.2,0.4v1.2c0,0.2,0.1,0.3,0.2,0.4C71.7,10,71.8,10,72,10
			c0.2,0,0.3-0.1,0.4-0.2c0.1-0.1,0.2-0.3,0.2-0.4V8.2c0-0.2-0.1-0.3-0.2-0.4C72.3,7.7,72.1,7.6,72,7.6z"/>
		<path class="st0" d="M36.7,22.1c-0.1-0.1-0.3-0.1-0.5,0c-0.1,0-0.3,0.1-0.5,0.1c-0.2,0-0.4,0-0.6,0c-0.2,0-0.4,0-0.7-0.1
			c-0.3-0.1-0.5-0.2-0.7-0.5c-0.1-0.2-0.2-0.4-0.3-0.7c-0.1-0.3-0.1-0.7-0.1-1.1v-6.1h3c0.2,0,0.3-0.1,0.4-0.2
			c0.1-0.1,0.2-0.3,0.2-0.4c0-0.2-0.1-0.3-0.2-0.4c-0.1-0.1-0.3-0.2-0.4-0.2h-3V8.2c0-0.2-0.1-0.3-0.2-0.4c-0.1-0.1-0.3-0.2-0.4-0.2
			c-0.2,0-0.3,0.1-0.4,0.2c-0.1,0.1-0.2,0.3-0.2,0.4v11.5c0,0.6,0.1,1,0.2,1.5c0.1,0.4,0.3,0.8,0.5,1.1c0.3,0.4,0.6,0.6,1,0.8
			c0.4,0.2,0.9,0.3,1.4,0.3c0.3,0,0.5,0,0.8,0c0.2,0,0.4-0.1,0.6-0.1c0.2-0.1,0.3-0.2,0.4-0.3c0.1-0.1,0.1-0.3,0-0.5
			C37,22.3,36.9,22.2,36.7,22.1z"/>
		<path class="st0" d="M46.8,13.1c0-0.2-0.1-0.3-0.2-0.4c-0.1-0.1-0.3-0.2-0.4-0.2c-0.2,0-0.3,0.1-0.4,0.2l-5,5V8.2
			c0-0.2-0.1-0.3-0.2-0.4c-0.1-0.1-0.3-0.2-0.4-0.2c-0.2,0-0.3,0.1-0.4,0.2c-0.1,0.1-0.2,0.3-0.2,0.4v14.5c0,0.2,0.1,0.3,0.2,0.4
			c0.1,0.1,0.3,0.2,0.4,0.2c0.2,0,0.3-0.1,0.4-0.2c0.1-0.1,0.2-0.3,0.2-0.4v-4.6l5,5c0.1,0.1,0.1,0.1,0.2,0.1c0.1,0,0.2,0,0.2,0
			c0.1,0,0.1,0,0.2,0c0.1,0,0.1-0.1,0.2-0.1c0.1-0.1,0.2-0.3,0.2-0.4c0-0.2-0.1-0.3-0.2-0.4l-4.4-4.4l4.4-4.4
			C46.7,13.4,46.8,13.2,46.8,13.1z"/>
		<path class="st0" d="M50.5,14.6c0.3-0.3,0.8-0.5,1.3-0.7c0.5-0.1,1.1-0.2,1.9-0.2c0.8,0,1.4,0.1,1.9,0.2c0.5,0.2,1,0.4,1.3,0.7
			c0.1,0.1,0.3,0.2,0.4,0.2c0.2,0,0.3-0.1,0.4-0.2c0.1-0.1,0.2-0.3,0.2-0.4c0-0.2-0.1-0.3-0.2-0.4c-0.2-0.2-0.5-0.4-0.8-0.6
			c-0.3-0.2-0.6-0.3-0.9-0.4c-0.3-0.1-0.7-0.2-1.1-0.2c-0.4-0.1-0.8-0.1-1.3-0.1c-0.4,0-0.9,0-1.2,0.1c-0.4,0.1-0.7,0.1-1.1,0.2
			c-0.3,0.1-0.6,0.2-0.9,0.4c-0.3,0.2-0.5,0.3-0.8,0.5c-0.3,0.2-0.5,0.5-0.7,0.8c-0.2,0.3-0.3,0.6-0.5,1c-0.1,0.4-0.2,0.7-0.3,1.1
			c-0.1,0.4-0.1,0.9-0.1,1.4c0,0.5,0,0.9,0.1,1.4c0.1,0.4,0.2,0.8,0.3,1.2c0.1,0.3,0.3,0.7,0.5,1c0.2,0.3,0.4,0.5,0.7,0.8
			c0.2,0.2,0.5,0.4,0.8,0.5c0.3,0.2,0.6,0.3,0.9,0.4c0.3,0.1,0.7,0.2,1.1,0.2c0.4,0.1,0.8,0.1,1.2,0.1c0.5,0,0.9,0,1.3-0.1
			c0.4-0.1,0.8-0.1,1.1-0.2c0.3-0.1,0.6-0.2,0.9-0.4c0.3-0.2,0.5-0.4,0.8-0.6c0.1-0.1,0.2-0.3,0.2-0.4c0-0.2-0.1-0.3-0.2-0.4
			c-0.1-0.1-0.3-0.2-0.4-0.2c-0.2,0-0.3,0.1-0.4,0.2c-0.3,0.3-0.8,0.6-1.3,0.7c-0.5,0.2-1.2,0.2-1.9,0.2c-0.7,0-1.3-0.1-1.9-0.2
			c-0.5-0.1-0.9-0.4-1.3-0.7c-0.4-0.3-0.6-0.8-0.8-1.3c-0.2-0.6-0.3-1.2-0.3-2c0-0.8,0.1-1.5,0.3-2C49.9,15.4,50.2,14.9,50.5,14.6z"
			/>
		<path class="st0" d="M60.4,19.9C60.4,19.9,60.4,19.9,60.4,19.9l-1.3,0c0,0.2,0.1,0.3,0.1,0.5c0.1,0.3,0.3,0.7,0.5,1
			c0.2,0.3,0.4,0.5,0.7,0.8c0.2,0.2,0.5,0.4,0.8,0.5c0.3,0.2,0.6,0.3,0.9,0.4c0.1,0,0.1,0,0.2,0.1v-1.3c-0.4-0.1-0.7-0.3-1-0.6
			C60.8,20.9,60.6,20.5,60.4,19.9z"/>
		<path class="st0" d="M68.3,19.9c-0.2,0.6-0.5,1-0.8,1.3c-0.3,0.3-0.7,0.5-1.2,0.6v1.3c0.1,0,0.2-0.1,0.3-0.1
			c0.3-0.1,0.6-0.2,0.9-0.4c0.3-0.2,0.5-0.3,0.7-0.5c0.3-0.2,0.5-0.5,0.7-0.8c0.2-0.3,0.3-0.6,0.5-1c0.1-0.2,0.1-0.3,0.1-0.5
			L68.3,19.9C68.3,19.9,68.3,19.9,68.3,19.9z"/>
		<path class="st0" d="M72,12.5c-0.2,0-0.3,0.1-0.4,0.2c-0.1,0.1-0.2,0.3-0.2,0.4v9.7c0,0.2,0.1,0.3,0.2,0.4
			c0.1,0.1,0.3,0.2,0.4,0.2c0.2,0,0.3-0.1,0.4-0.2c0.1-0.1,0.2-0.3,0.2-0.4v-9.7c0-0.2-0.1-0.3-0.2-0.4C72.3,12.5,72.1,12.5,72,12.5
			z"/>
		<path class="st0" d="M84.6,16.6c-0.1-0.4-0.1-0.8-0.3-1.1c-0.1-0.3-0.3-0.7-0.4-1c-0.2-0.3-0.4-0.6-0.6-0.8
			c-0.4-0.4-0.9-0.7-1.5-0.9c-0.6-0.2-1.2-0.3-2-0.3s-1.4,0.1-2,0.3c-0.6,0.2-1.1,0.5-1.5,0.9c0,0-0.1,0.1-0.1,0.1
			c0,0-0.1,0.1-0.1,0.1v-0.8c0-0.2-0.1-0.3-0.2-0.4c-0.1-0.1-0.3-0.2-0.4-0.2c-0.2,0-0.3,0.1-0.4,0.2c-0.1,0.1-0.2,0.3-0.2,0.4v9.7
			c0,0.2,0.1,0.3,0.2,0.4c0.1,0.1,0.3,0.2,0.4,0.2c0.2,0,0.3-0.1,0.4-0.2c0.1-0.1,0.2-0.3,0.2-0.4v-4.9c0-0.8,0.1-1.4,0.3-2
			c0.2-0.6,0.4-1,0.8-1.4c0.3-0.3,0.7-0.5,1.1-0.7c0.4-0.1,0.9-0.2,1.5-0.2c0.6,0,1.1,0.1,1.5,0.2c0.4,0.1,0.8,0.4,1.1,0.7
			c0.3,0.3,0.6,0.8,0.8,1.4c0.2,0.6,0.3,1.2,0.3,2v4.9c0,0.2,0.1,0.3,0.2,0.4c0.1,0.1,0.3,0.2,0.4,0.2c0.2,0,0.3-0.1,0.4-0.2
			c0.1-0.1,0.2-0.3,0.2-0.4v-4.9C84.7,17.5,84.7,17,84.6,16.6z"/>
	</g>
	<path class="st0" d="M15.8,2C8.4,2,2.3,8,2.3,15.5S8.4,29,15.8,29c7.5,0,13.5-6.1,13.5-13.5S23.3,2,15.8,2z M17.7,27
		c2.1-0.8,3.5-2.8,3.5-5.1c0-3-2.4-5.4-5.4-5.4c-3,0-5.4,2.4-5.4,5.4c0,2.3,1.5,4.3,3.5,5.1C8.4,26,4.2,21.2,4.2,15.5
		c0-6.4,5.2-11.6,11.6-11.6c6.4,0,11.6,5.2,11.6,11.6C27.4,21.2,23.2,26,17.7,27z"/>
</g>
</svg>
