<?xml version="1.0" encoding="utf-8"?>
<!-- Generator: Adobe Illustrator 24.3.0, SVG Export Plug-In . SVG Version: 6.00 Build 0)  -->
<svg version="1.1" id="Layer_1" xmlns="http://www.w3.org/2000/svg" xmlns:xlink="http://www.w3.org/1999/xlink" x="0px" y="0px"
	 viewBox="0 0 240 240" style="enable-background:new 0 0 240 240;" xml:space="preserve">
<style type="text/css">
	.st0{fill:#3C6EA4;}
</style>
<g>
	<path class="st0" d="M67.6,82.6l65.5,65.9c0.5,0.5,1.4,0.5,1.9,0l14.8-14.8c0.5-0.5,0.5-1.4,0-1.9L97,78.5
		c-0.3-0.3-0.7-0.4-1.1-0.4l-27.5,2.1C67.4,80.4,66.8,81.8,67.6,82.6z"/>
	<path class="st0" d="M143.5,116c0.9,0.9,2.3,0.3,2.3-1l0-35.3c0-1.2-1.5-1.8-2.3-1l-17.6,17.6c-0.5,0.5-0.5,1.4,0,1.9L143.5,116z"
		/>
	<path class="st0" d="M154,101.9l17.6-3.2c1.1-0.2,1.5-1.5,0.7-2.3l-17.6-17.6c-0.9-0.9-2.3-0.3-2.3,1v20.8
		C152.4,101.4,153.2,102.1,154,101.9z"/>
	<path class="st0" d="M99.8,127.5l-4.2,57.1c-0.1,1.3,1.4,2,2.3,1.1l30.6-30.6c0.5-0.5,0.5-1.4,0-1.9l-26.4-26.5
		C101.3,125.8,99.9,126.3,99.8,127.5z"/>
	<path class="st0" d="M207,79.4v6h15.1v-7.8c0-33-26.8-59.7-59.8-59.7h-7.8V33h6.1C186.3,33,207,53.8,207,79.4z"/>
	<path class="st0" d="M33.1,79.4C33.1,53.8,53.8,33,79.4,33h6V17.9h-7.8c-33.1,0-59.8,26.7-59.8,59.7v7.8h15.2V79.4z"/>
	<path class="st0" d="M222.2,154.6H207v6c0,25.6-20.8,46.4-46.4,46.4h-6.1v15.1h7.8c33,0,59.8-26.7,59.8-59.7V154.6z"/>
	<path class="st0" d="M77.7,222.1h7.8V207h-6c-25.6,0-46.4-20.8-46.4-46.4v-6H17.8v7.8C17.8,195.4,44.6,222.1,77.7,222.1z"/>
</g>
</svg>
