<?xml version="1.0" encoding="utf-8"?>
<!-- Generator: Adobe Illustrator 24.3.0, SVG Export Plug-In . SVG Version: 6.00 Build 0)  -->
<svg version="1.1" id="Layer_1" xmlns="http://www.w3.org/2000/svg" xmlns:xlink="http://www.w3.org/1999/xlink" x="0px" y="0px"
	 viewBox="0 0 1038.4 678.9" style="enable-background:new 0 0 1038.4 678.9;" xml:space="preserve">
<style type="text/css">
	.st0{fill:#3C6EA4;}
</style>
<g>
	<path class="st0" d="M286.1,525.7c-1.1-3.1-2.6-6-4.2-8.6c-1.6-2.6-3.6-4.9-5.9-7c-2-1.8-4.2-3.4-6.7-4.9c-2.4-1.5-5.2-2.4-8.2-3.4
		c-2.9-0.8-6.2-1.6-9.6-2c-3.4-0.5-7.2-0.7-11.3-0.7c-3.9,0-7.7,0.2-11.1,0.7c-3.4,0.5-6.7,1.1-9.6,2c-2.9,0.8-5.7,2-8.2,3.4
		c-2.4,1.5-4.7,2.9-6.8,4.9c-2.3,2.1-4.2,4.4-5.9,7s-3.1,5.5-4.2,8.6c-1.1,3.1-2,6.7-2.4,10.3c-0.5,3.8-0.8,7.8-0.8,12.2
		c0,4.4,0.3,8.5,0.8,12.2c0.5,3.8,1.5,7.2,2.4,10.3c1.1,3.1,2.4,6,4.2,8.6c1.6,2.6,3.6,4.9,5.9,7c2.1,1.8,4.4,3.4,6.8,4.9
		c2.4,1.5,5.2,2.4,8.2,3.4c2.9,0.8,6.2,1.6,9.6,2c3.4,0.5,7.2,0.7,11.1,0.7c4.2,0,8.3-0.3,11.9-0.8c3.6-0.5,7-1.3,10.3-2.3
		c3.1-1,6-2.3,8.5-3.9c2.4-1.6,4.9-3.4,6.8-5.5c1.1-1.1,1.6-2.4,1.5-3.9c0-1.5-0.7-2.8-1.6-3.9c-1.1-1-2.4-1.5-3.9-1.5
		s-2.8,0.5-3.9,1.6c-2.9,3.1-6.8,5.4-11.7,6.8c-4.9,1.5-10.8,2.3-17.8,2.3c-6.5,0-12.2-0.7-16.8-2c-4.7-1.3-8.5-3.4-11.6-6.2
		c-2.8-2.6-5.1-5.9-6.7-9.9s-2.6-9-3.1-14.7H284c1.5,0,2.8-0.5,3.9-1.6c1.1-1.1,1.6-2.3,1.6-3.9c0-4.4-0.3-8.5-0.8-12.2
		C288.1,532.4,287.3,528.8,286.1,525.7z M202.2,542.8c0.5-5.7,1.5-10.6,3.1-14.7s3.8-7.3,6.7-9.9c2.9-2.8,6.8-4.9,11.6-6.2
		c4.7-1.3,10.3-2,16.8-2c6.5,0,12.2,0.7,16.8,2c4.7,1.3,8.6,3.4,11.6,6.2c2.8,2.6,5.1,5.9,6.7,9.9s2.6,9,2.9,14.7H202.2z"/>
	<path class="st0" d="M399.8,455.4c-1.5,0-2.8,0.5-3.9,1.6c-1.1,1.1-1.6,2.3-1.6,3.9v51.7c-0.5-0.5-0.8-0.8-1.3-1.3
		c-0.3-0.3-0.8-0.8-1.3-1.3c-2-1.8-4.2-3.4-6.7-4.9c-2.4-1.5-5.2-2.4-8.2-3.4c-2.9-0.8-6.2-1.6-9.6-2c-3.4-0.5-7.2-0.7-11.3-0.7
		c-3.9,0-7.7,0.2-11.1,0.7c-3.4,0.5-6.7,1.1-9.6,2c-2.9,0.8-5.7,2-8.2,3.4c-2.4,1.5-4.7,2.9-6.8,4.9c-2.3,2.1-4.2,4.4-5.9,7
		c-1.6,2.6-3.1,5.5-4.2,8.6c-1.1,3.1-2,6.7-2.4,10.3c-0.5,3.8-0.8,7.8-0.8,12.2c0,4.4,0.3,8.5,0.8,12.2c0.5,3.8,1.5,7.2,2.4,10.3
		c1.1,3.1,2.4,6,4.2,8.6c1.6,2.6,3.6,4.9,5.9,7c2.1,1.8,4.4,3.4,6.8,4.9c2.4,1.5,5.2,2.4,8.2,3.4c2.9,0.8,6.2,1.6,9.6,2
		c3.4,0.5,7.2,0.7,11.1,0.7c3.9,0,7.7-0.2,11.3-0.7c3.4-0.5,6.7-1.1,9.6-2s5.7-2,8.2-3.4s4.7-2.9,6.7-4.9c0.5-0.5,1-0.8,1.3-1.3
		c0.3-0.3,0.8-0.8,1.3-1.3v8c0,1.5,0.5,2.8,1.6,3.9c1.1,1.1,2.3,1.6,3.9,1.6s2.8-0.5,3.9-1.6c1.1-1.1,1.6-2.3,1.6-3.9V460.6
		c0-1.5-0.5-2.8-1.6-3.9C402.6,455.9,401.3,455.4,399.8,455.4z M391.8,566.4c-1.6,5.1-4.1,9-7.3,11.9c-3.1,2.8-7,4.9-11.6,6.2
		c-4.7,1.3-10.3,2-16.8,2c-6.5,0-12.2-0.7-16.8-2c-4.7-1.3-8.5-3.4-11.6-6.2c-3.4-2.9-5.9-7-7.3-11.9c-1.6-5.1-2.4-11.1-2.4-18.1
		c0-7,0.8-13.2,2.4-18.1c1.6-5.1,4.1-9,7.3-11.9c2.9-2.8,6.8-4.9,11.6-6.2s10.3-2,16.8-2c6.5,0,12.2,0.7,16.8,2
		c4.7,1.3,8.6,3.4,11.6,6.2c3.3,2.9,5.7,7,7.3,11.9c1.6,5.1,2.4,11.1,2.4,18.1C394.3,555.4,393.6,561.4,391.8,566.4z"/>
	<path class="st0" d="M504.6,499.1c-1.5,0-2.8,0.5-3.9,1.6c-1.1,1.1-1.6,2.3-1.6,3.9v43.7c0,7-0.8,13-2.3,18.1
		c-1.6,5.1-3.9,9.1-7,12.2c-2.6,2.6-5.9,4.6-9.9,5.9c-3.9,1.3-8.5,2-13.5,2c-5.1,0-9.6-0.7-13.5-2c-3.9-1.3-7.2-3.3-9.9-5.9
		c-3.1-3.1-5.4-7.2-7-12.2c-1.6-5.1-2.3-11.1-2.3-18.1v-43.7c0-1.5-0.5-2.8-1.6-3.9c-1.1-1.1-2.3-1.6-3.9-1.6s-2.9,0.5-3.9,1.6
		c-1.1,1.1-1.6,2.3-1.6,3.9v43.7c0,4.2,0.3,8.2,0.8,11.9c0.5,3.8,1.3,7.2,2.4,10.3c1.1,3.1,2.4,6,3.9,8.6c1.6,2.6,3.4,5.1,5.4,7
		c3.8,3.8,8.2,6.5,13.4,8.3c5.2,2,11.1,2.8,17.8,2.8s12.6-1,17.8-2.8c5.2-2,9.6-4.7,13.4-8.3c0.3-0.3,0.5-0.5,0.8-0.8
		c0.3-0.3,0.5-0.5,0.8-0.8v7.5c0,1.5,0.5,2.8,1.6,3.9c1.1,1.1,2.3,1.6,3.9,1.6s2.9-0.5,3.9-1.6c1.1-1.1,1.6-2.3,1.6-3.9v-87.6
		c0-1.5-0.5-2.8-1.6-3.9C507.4,499.6,506.1,499.1,504.6,499.1z"/>
	<path class="st0" d="M548.3,518.2c2.9-2.8,6.8-4.9,11.6-6.2s10.3-2,16.8-2c6.7,0,12.6,0.7,17.3,2.1c4.7,1.5,8.6,3.6,11.7,6.5
		c1.1,1.1,2.3,1.6,3.8,1.5c1.5,0,2.8-0.5,3.9-1.6c1.1-1.1,1.6-2.4,1.5-3.9c0-1.5-0.5-2.8-1.6-3.8c-2.1-2-4.4-3.8-6.8-5.2
		c-2.4-1.5-5.2-2.8-8.3-3.6c-3.1-1-6.4-1.6-9.9-2.1c-3.6-0.5-7.3-0.8-11.6-0.8c-3.9,0-7.7,0.3-11.1,0.7c-3.4,0.5-6.7,1.1-9.6,2
		c-2.9,0.8-5.7,2-8.2,3.4c-2.4,1.3-4.7,2.9-6.7,4.9c-2.3,2.1-4.2,4.4-5.9,7s-3.1,5.5-4.2,8.6c-1.1,3.3-2,6.7-2.4,10.3
		c-0.5,3.8-0.8,7.8-0.8,12.2c0,4.4,0.3,8.5,0.8,12.2c0.5,3.8,1.5,7.2,2.4,10.4c1.1,3.1,2.4,6,4.2,8.6c1.6,2.6,3.6,4.9,5.9,7
		c2.1,1.8,4.2,3.4,6.7,4.9c2.4,1.3,5.2,2.4,8.2,3.4c2.9,1,6.2,1.6,9.6,2.1s7.2,0.7,11.1,0.7c4.1,0,8-0.3,11.6-0.8
		c3.6-0.5,6.8-1.1,9.9-2.1c3.1-1,5.9-2.1,8.3-3.6s4.7-3.3,6.8-5.2c1.1-1.1,1.6-2.3,1.6-3.9c0-1.5-0.5-2.8-1.5-3.9
		c-1.1-1.1-2.4-1.6-3.9-1.6s-2.8,0.5-3.8,1.6c-2.9,2.9-6.8,5.1-11.7,6.5c-4.9,1.5-10.6,2.1-17.3,2.1c-6.5,0-12.1-0.7-16.8-2
		c-4.7-1.3-8.5-3.4-11.6-6.2c-3.4-2.9-5.9-7-7.5-11.9c-1.6-5.1-2.4-11.1-2.4-18.1c0-7,0.8-13.2,2.4-18.1
		C542.5,525.2,544.9,521.1,548.3,518.2z"/>
	<path class="st0" d="M643.9,505.1c-2.4,1.3-4.7,2.9-6.7,4.9c-2.3,2.1-4.2,4.4-5.9,7c-1.6,2.6-3.1,5.5-4.2,8.6
		c-0.5,1.1-0.8,2.4-1.1,3.8h11.4c1.6-4.6,4.1-8.3,7.2-11.3c2.4-2.3,5.5-4.1,9.1-5.4v-11.4c-0.5,0.2-1.1,0.3-1.6,0.5
		C649,502.7,646.3,503.8,643.9,505.1z"/>
	<path class="st0" d="M690.5,500.9v11.4c4.2,1.3,7.8,3.3,10.8,5.9c3.1,2.8,5.4,6.5,7.2,11.3h11.4c-0.3-1.3-0.7-2.4-1.1-3.8
		c-1.1-3.1-2.6-6-4.2-8.6c-1.6-2.6-3.6-4.9-5.9-7c-2-1.8-4.2-3.4-6.7-4.9c-2.4-1.5-5.2-2.6-8.2-3.4
		C692.7,501.4,691.7,501.2,690.5,500.9z"/>
	<path class="st0" d="M708.6,566.4c-1.6,4.9-4.1,9-7.3,11.9c-2.9,2.6-6.5,4.6-10.8,5.9v11.4c1.1-0.3,2.1-0.5,3.1-0.8
		c2.9-0.8,5.7-2,8.2-3.4c2.4-1.3,4.7-2.9,6.7-4.9c2.3-2.1,4.2-4.4,5.9-7c1.6-2.6,3.1-5.5,4.2-8.6c0.5-1.5,1-2.9,1.3-4.6L708.6,566.4
		C708.8,566.3,708.6,566.4,708.6,566.4z"/>
	<path class="st0" d="M637,566.4C637,566.4,636.9,566.3,637,566.4l-11.4-0.2c0.3,1.6,0.8,3.1,1.3,4.6c1.1,3.1,2.4,6,4.2,8.6
		c1.6,2.6,3.6,4.9,5.9,7c2.1,1.8,4.2,3.4,6.7,4.9c2.4,1.3,5.2,2.4,8.2,3.4c0.5,0.2,1.1,0.3,1.6,0.5v-11.4c-3.6-1.3-6.7-3.1-9.1-5.4
		C641.1,575.4,638.7,571.3,637,566.4z"/>
	<path class="st0" d="M749.2,501.5c-1.6,0-2.9,0.5-3.9,1.6c-1.1,1.1-1.6,2.3-1.6,3.8v87.6c0,1.5,0.5,2.8,1.6,3.8
		c1.1,1.1,2.4,1.6,3.9,1.6s2.8-0.5,3.9-1.6c1.1-1.1,1.6-2.3,1.6-3.8v-87.6c0-1.5-0.5-2.8-1.6-3.8C752.2,502,750.9,501.5,749.2,501.5
		z"/>
	<path class="st0" d="M749.2,455.4c-1.6,0-2.9,0.5-3.9,1.6c-1.1,1.1-1.6,2.4-1.6,3.9v10.9c0,1.5,0.5,2.8,1.6,3.9
		c1.1,1.1,2.4,1.6,3.9,1.6s2.8-0.5,3.9-1.6c1.1-1.1,1.6-2.4,1.6-3.9v-10.9c0-1.5-0.5-2.8-1.6-3.9
		C752.2,455.9,750.9,455.4,749.2,455.4z"/>
	<path class="st0" d="M863.4,536.3c-0.5-3.8-1.3-7.2-2.4-10.3c-1.1-3.1-2.4-6-3.9-8.6c-1.6-2.6-3.4-5.1-5.4-7
		c-3.8-3.8-8.2-6.5-13.4-8.3c-5.2-2-11.1-2.8-17.8-2.8s-12.6,1-17.8,2.8c-5.2,2-9.8,4.7-13.4,8.3c-0.3,0.3-0.5,0.5-0.8,0.8
		c-0.3,0.3-0.5,0.5-0.8,0.8v-7.5c0-1.5-0.5-2.8-1.6-3.8c-1.1-1.1-2.3-1.6-3.8-1.6c-1.6,0-2.9,0.5-3.9,1.6c-1.1,1.1-1.6,2.3-1.6,3.8
		V592c0,1.5,0.5,2.8,1.6,3.8c1.1,1.1,2.4,1.6,3.9,1.6s2.8-0.5,3.8-1.6c1.1-1.1,1.6-2.3,1.6-3.8v-43.7c0-7,0.8-12.9,2.4-18.1
		c1.6-5.1,3.9-9.1,6.8-12.2c2.6-2.6,5.9-4.6,9.9-5.9c3.9-1.3,8.5-2,13.5-2s9.6,0.7,13.5,2c3.9,1.3,7.3,3.3,9.9,5.9
		c3.1,3.1,5.4,7.2,7,12.2c1.6,5.1,2.3,11.1,2.3,18.1V592c0,1.5,0.5,2.8,1.6,3.8c1.1,1.1,2.4,1.6,3.9,1.6c1.6,0,2.9-0.5,3.9-1.6
		c1.1-1.1,1.6-2.3,1.6-3.8v-43.7C864.2,544.1,863.9,540,863.4,536.3z"/>
	<g>
		<path class="st0" d="M491.3,168.7c-0.5-0.5-1.1-0.7-1.8-0.7l-46.1,3.6c-2,0.2-2.8,2.4-1.5,3.9l110.1,110.7c0.8,1,2.3,1,3.3,0
			l24.8-24.8c0.8-0.8,0.8-2.3,0-3.3L491.3,168.7z"/>
		<path class="st0" d="M569.2,231.7c1.5,1.5,3.9,0.5,3.9-1.6v-59.4c0-2.1-2.4-3.1-3.9-1.6l-29.5,29.5c-0.8,0.8-0.8,2.3,0,3.3
			L569.2,231.7z"/>
		<path class="st0" d="M617.8,198.7l-29.7-29.7c-1.5-1.5-3.9-0.5-3.9,1.6v35.1c0,1.5,1.3,2.4,2.8,2.3l29.7-5.4
			C618.5,202.3,619.1,200,617.8,198.7z"/>
		<path class="st0" d="M499.9,249.6c-1.3-1.5-3.8-0.5-3.9,1.5l-7,95.9c-0.2,2.1,2.4,3.3,3.9,1.8l51.4-51.4c0.8-0.8,0.8-2.3,0-3.3
			L499.9,249.6z"/>
		<path class="st0" d="M601,66.8h-13v25.4h10.3c43,0,77.9,34.9,77.9,77.9v10.1h25.4v-13C701.5,111.7,656.5,66.8,601,66.8z"/>
		<path class="st0" d="M383.7,170.2c0-43,34.9-77.9,77.9-77.9h10.1V66.8h-13c-55.6,0-100.6,44.8-100.6,100.4v13h25.6V170.2z"/>
		<path class="st0" d="M676,306.7c0,43-34.9,77.9-77.9,77.9h-10.3v25.4h13c55.6,0,100.4-45,100.4-100.4v-13.2h-25.4v10.3H676z"/>
		<path class="st0" d="M383.7,306.7v-10.1h-25.6v13.2c0,55.4,45,100.4,100.6,100.4h13v-25.4h-10.1
			C418.6,384.6,383.7,349.7,383.7,306.7z"/>
	</g>
</g>
</svg>
